<?xml version="1.0" standalone="no"?>
<!DOCTYPE svg PUBLIC "-//W3C//DTD SVG 20010904//EN"
 "http://www.w3.org/TR/2001/REC-SVG-20010904/DTD/svg10.dtd">
<svg version="1.0" xmlns="http://www.w3.org/2000/svg"
 width="1380.000000pt" height="1380.000000pt" viewBox="0 0 1380.000000 1380.000000"
 preserveAspectRatio="xMidYMid meet">

<g transform="translate(0.000000,1380.000000) scale(0.100000,-0.100000)"
fill="#000000" stroke="none">
<path d="M2989 13297 c-29 -16 -54 -40 -74 -72 l-30 -48 0 -436 c0 -240 4
-453 8 -474 10 -47 60 -105 112 -128 35 -16 69 -19 272 -19 l231 0 6 -27 c3
-16 42 -298 86 -628 44 -330 95 -719 115 -864 19 -145 35 -269 35 -276 0 -9
-22 -14 -68 -17 -76 -4 -112 -24 -160 -85 l-27 -36 -3 -339 -3 -338 -504 0
-504 0 -3 338 -3 339 -24 35 c-13 19 -40 46 -59 59 l-36 24 -855 3 c-578 2
-868 0 -892 -8 -47 -13 -116 -87 -124 -132 -3 -18 -4 -1501 -3 -3295 l3 -3261
31 -38 c60 -75 70 -79 225 -82 l139 -4 0 -904 0 -904 -123 0 c-108 0 -128 -3
-167 -22 -24 -13 -58 -40 -74 -61 l-31 -39 -3 -451 c-2 -249 0 -467 3 -485 7
-40 68 -110 112 -129 48 -20 12558 -20 12606 0 44 19 105 89 112 129 3 18 5
236 3 485 l-3 451 -31 39 c-16 21 -50 48 -74 61 -39 19 -59 22 -167 22 l-123
0 2 903 3 902 135 5 c77 3 144 10 156 17 38 22 93 91 99 125 3 18 5 236 3 485
-3 508 3 469 -82 537 l-38 31 -5356 5 -5357 5 -3 197 -2 198 4947 2 4948 3 40
23 c22 13 54 42 70 65 l30 42 3 738 2 737 321 0 c266 0 326 3 357 15 47 20 79
50 103 97 18 35 19 66 19 588 0 598 1 587 -56 644 -59 59 -69 61 -421 64
l-323 3 0 623 0 623 -23 44 c-13 24 -43 58 -66 74 l-43 30 -234 3 -234 3 0
313 c0 207 -4 324 -11 347 -18 54 -58 100 -105 120 -41 19 -73 19 -703 17
l-659 -3 -43 -30 c-82 -58 -84 -65 -87 -437 l-3 -328 -199 0 -200 0 0 320 c0
267 -3 327 -15 358 -20 47 -50 79 -97 103 -35 18 -68 19 -688 19 -712 0 -687
2 -747 -60 -58 -59 -60 -75 -62 -477 l-1 -263 -1199 0 -1200 0 -3 328 -3 329
-30 48 c-40 64 -97 95 -177 95 l-59 0 6 33 c6 38 235 1757 235 1769 0 4 107 8
238 8 231 0 240 1 283 23 24 13 58 43 74 66 l30 43 0 468 0 468 -30 44 c-17
23 -49 53 -70 65 l-40 23 -1661 0 -1661 0 -44 -23z m3111 -577 l0 -200 -1405
0 -1405 0 0 200 0 200 1405 0 1405 0 0 -200z m-641 -632 c0 -18 -53 -424 -117
-903 l-117 -870 -532 -3 -532 -2 -6 32 c-3 18 -55 407 -115 863 -61 457 -113
849 -116 873 l-6 42 771 0 771 0 -1 -32z m-3379 -2578 l0 -400 -600 0 -600 0
0 400 0 400 600 0 600 0 0 -400z m3410 200 l0 -200 -800 0 -800 0 0 200 0 200
800 0 800 0 0 -200z m4020 0 l0 -200 -400 0 -400 0 0 200 0 200 400 0 400 0 0
-200z m2010 0 l0 -200 -402 2 -403 3 -3 185 c-1 101 0 190 2 197 4 10 89 13
406 13 l400 0 0 -200z m600 -2405 l0 -1805 -682 0 c-1463 0 -7834 0 -8380 0
l-578 0 0 600 0 600 395 0 c217 0 395 -3 395 -8 0 -4 -40 -129 -90 -277 -98
-295 -106 -337 -70 -411 60 -123 250 -141 334 -32 14 20 66 159 130 353 59
176 112 332 118 348 l10 27 390 0 c368 0 390 -1 383 -17 -39 -98 -185 -562
-185 -589 0 -106 91 -194 199 -194 61 0 97 13 134 48 43 41 56 71 173 425
l109 327 288 0 287 0 -6 -27 c-4 -16 -44 -138 -89 -273 -45 -135 -85 -259 -89
-277 -15 -68 32 -162 99 -200 80 -45 206 -21 259 51 12 15 73 183 137 374
l116 347 391 3 391 2 -95 -282 c-85 -252 -95 -289 -91 -340 2 -46 9 -65 33
-95 46 -56 78 -75 133 -81 79 -7 117 4 165 51 42 41 46 51 160 395 l118 352
290 0 c228 0 289 -3 285 -12 -2 -7 -46 -139 -97 -294 -104 -316 -107 -334 -49
-414 51 -71 160 -101 242 -66 77 32 88 53 214 433 l118 353 387 0 c214 0 388
-4 388 -9 0 -4 -41 -129 -91 -277 -82 -244 -90 -275 -87 -330 3 -46 11 -72 30
-102 70 -105 245 -110 322 -9 17 22 68 159 141 378 63 189 115 345 115 346 0
2 176 3 390 3 215 0 390 -1 390 -3 0 -1 -43 -130 -95 -287 -52 -157 -95 -299
-95 -318 0 -104 91 -192 199 -192 65 0 98 13 143 57 35 34 46 63 155 390 l118
352 531 3 531 3 42 29 c23 17 52 48 64 70 21 40 22 52 25 476 2 309 0 447 -8
475 -16 55 -53 101 -100 125 -37 19 -59 20 -360 20 -176 0 -320 3 -320 8 0 4
38 122 85 262 47 140 90 274 95 298 24 102 -46 208 -151 232 -75 17 -128 1
-182 -53 -39 -40 -47 -59 -157 -392 l-117 -350 -386 -3 c-298 -2 -387 1 -387
10 0 7 41 134 90 284 55 167 90 287 90 313 0 124 -128 225 -245 192 -50 -13
-99 -48 -122 -86 -10 -16 -70 -183 -133 -370 l-115 -340 -387 -3 c-214 -1
-388 1 -388 5 0 4 43 136 95 294 52 157 95 294 95 304 0 82 -74 174 -157 194
-87 21 -182 -19 -220 -92 -9 -18 -66 -183 -128 -367 l-112 -335 -286 -3 c-229
-2 -287 0 -287 11 0 7 41 134 91 282 79 238 90 277 86 327 -11 172 -211 247
-333 124 -39 -39 -47 -58 -158 -393 l-118 -353 -390 0 c-308 0 -389 3 -385 13
48 129 187 573 187 598 -1 79 -72 168 -151 189 -75 20 -171 -14 -211 -74 -12
-18 -74 -188 -137 -377 l-116 -344 -287 -3 c-159 -1 -288 1 -288 6 0 4 41 129
90 277 64 189 91 285 92 320 3 178 -210 268 -336 141 -39 -39 -47 -59 -149
-366 -59 -179 -113 -337 -119 -352 l-10 -28 -383 0 c-210 0 -384 2 -387 5 -2
3 37 130 88 283 56 165 93 294 94 318 1 110 -88 198 -200 198 -67 0 -128 -31
-164 -83 -13 -20 -75 -190 -137 -379 l-114 -342 -595 2 -595 3 -3 590 c-1 325
0 596 3 603 3 9 977 12 4820 12 l4815 0 0 -1805z m-10040 1000 l0 -405 -600 0
-600 0 0 405 0 405 600 0 600 0 0 -405z m10840 -905 l0 -300 -200 0 -200 0 0
300 0 300 200 0 200 0 0 -300z m-10840 -1305 l0 -1405 -600 0 -600 0 0 1405 0
1405 600 0 600 0 0 -1405z m1458 1393 c-3 -7 -33 -97 -67 -200 l-63 -188 -464
0 -464 0 0 200 0 200 531 0 c421 0 530 -3 527 -12z m1202 0 c-1 -7 -29 -96
-63 -198 l-63 -185 -387 -3 c-213 -1 -387 1 -387 5 0 5 28 95 62 201 l63 192
387 0 c304 0 388 -3 388 -12z m1007 0 c-2 -7 -32 -97 -66 -200 l-62 -188 -291
0 c-228 0 -289 3 -286 13 3 6 33 96 67 200 l63 187 290 0 c228 0 289 -3 285
-12z m1203 4 c0 -4 -29 -93 -63 -197 l-64 -190 -391 -3 -390 -2 66 200 67 200
387 0 c214 0 388 -3 388 -8z m942 -192 l-67 -200 -287 0 c-159 0 -288 4 -288
8 0 6 108 335 125 380 3 9 71 12 294 12 l289 0 -66 -200z m1268 194 c0 -3 -29
-92 -65 -196 -36 -105 -65 -192 -65 -194 0 -2 -176 -4 -391 -4 -309 0 -390 3
-387 13 3 6 33 96 67 200 l63 187 389 0 c214 0 389 -3 389 -6z m1142 -191
l-67 -198 -389 -3 c-376 -2 -388 -2 -383 17 2 10 31 100 63 199 l59 181 392 1
392 0 -67 -197z m1016 0 l-3 -198 -329 -3 c-261 -2 -327 0 -324 10 3 7 33 97
67 201 l63 187 264 0 264 0 -2 -197z m1602 -3213 l0 -200 -6020 0 -6020 0 0
200 0 200 6020 0 6020 0 0 -200z m-400 -1505 l0 -905 -5620 0 -5620 0 0 905 0
905 5620 0 5620 0 0 -905z m400 -1505 l0 -200 -6020 0 -6020 0 0 200 0 200
6020 0 6020 0 0 -200z"/>
<path d="M2236 2879 c-110 -26 -176 -139 -146 -250 16 -59 81 -122 143 -137
62 -16 1045 -17 1102 -1 112 31 175 139 145 250 -16 59 -81 122 -143 137 -56
15 -1041 15 -1101 1z"/>
<path d="M4265 2885 c-5 -2 -22 -6 -37 -9 -39 -9 -98 -64 -119 -111 -35 -76
-18 -159 44 -223 58 -60 74 -62 641 -62 312 0 525 4 547 10 92 26 150 101 151
193 1 81 -35 142 -107 181 -39 21 -49 21 -575 23 -294 1 -539 0 -545 -2z"/>
<path d="M6258 2881 c-179 -36 -216 -287 -55 -373 l42 -23 555 0 555 0 42 24
c24 14 55 42 70 64 24 35 28 50 28 112 0 62 -4 77 -28 112 -15 22 -46 50 -70
64 l-42 24 -530 2 c-291 0 -547 -2 -567 -6z"/>
<path d="M8265 2881 c-115 -28 -178 -127 -154 -241 15 -69 74 -131 141 -148
33 -8 201 -12 556 -12 565 0 581 2 639 62 60 62 78 143 47 216 -8 20 -29 52
-47 70 -59 61 -74 62 -641 61 -281 -1 -524 -4 -541 -8z"/>
<path d="M10257 2877 c-149 -47 -193 -222 -84 -335 58 -60 74 -62 639 -62 355
0 523 4 556 12 62 15 123 77 142 142 24 88 -20 185 -106 230 -38 20 -54 21
-574 23 -392 1 -545 -1 -573 -10z"/>
</g>
</svg>
